<svg width="40" height="40" viewBox="0 0 40 40" fill="none" xmlns="http://www.w3.org/2000/svg">
<g clip-path="url(#clip0_1912_3)">
<path d="M20.286 13.7031C21.1266 12.8587 22.1793 12.2566 23.3333 11.9602V3.33333C23.3333 2.44928 22.9821 1.60143 22.357 0.976311C21.7319 0.35119 20.884 0 20 0L4.99996 0C4.1159 0 3.26806 0.35119 2.64294 0.976311C2.01782 1.60143 1.66663 2.44928 1.66663 3.33333V18.3333C1.66663 19.2174 2.01782 20.0652 2.64294 20.6904C3.26806 21.3155 4.1159 21.6667 4.99996 21.6667H12.3225L20.286 13.7031ZM16.6666 5C16.9963 5 17.3185 5.09775 17.5926 5.28088C17.8667 5.46402 18.0803 5.72432 18.2064 6.02886C18.3326 6.3334 18.3656 6.66852 18.3013 6.99182C18.237 7.31512 18.0782 7.61209 17.8451 7.84518C17.6121 8.07827 17.3151 8.237 16.9918 8.30131C16.6685 8.36562 16.3334 8.33261 16.0288 8.20647C15.7243 8.08032 15.464 7.8667 15.2808 7.59262C15.0977 7.31854 15 6.9963 15 6.66667C15 6.22464 15.1756 5.80072 15.4881 5.48816C15.8007 5.17559 16.2246 5 16.6666 5ZM16.6666 11.6667C16.9963 11.6667 17.3185 11.7644 17.5926 11.9476C17.8667 12.1307 18.0803 12.391 18.2064 12.6955C18.3326 13.0001 18.3656 13.3352 18.3013 13.6585C18.237 13.9818 18.0782 14.2788 17.8451 14.5118C17.6121 14.7449 17.3151 14.9037 16.9918 14.968C16.6685 15.0323 16.3334 14.9993 16.0288 14.8731C15.7243 14.747 15.464 14.5334 15.2808 14.2593C15.0977 13.9852 15 13.663 15 13.3333C15 12.8913 15.1756 12.4674 15.4881 12.1548C15.8007 11.8423 16.2246 11.6667 16.6666 11.6667ZM8.33329 5C8.66293 5 8.98516 5.09775 9.25924 5.28088C9.53333 5.46402 9.74695 5.72432 9.87309 6.02886C9.99924 6.3334 10.0322 6.66852 9.96794 6.99182C9.90363 7.31512 9.74489 7.61209 9.5118 7.84518C9.27872 8.07827 8.98175 8.237 8.65844 8.30131C8.33514 8.36562 8.00003 8.33261 7.69549 8.20647C7.39094 8.08032 7.13065 7.8667 6.94751 7.59262C6.76437 7.31854 6.66663 6.9963 6.66663 6.66667C6.66663 6.22464 6.84222 5.80072 7.15478 5.48816C7.46734 5.17559 7.89127 5 8.33329 5ZM8.33329 16.6667C8.00366 16.6667 7.68142 16.5689 7.40734 16.3858C7.13326 16.2026 6.91964 15.9424 6.79349 15.6378C6.66735 15.3333 6.63434 14.9982 6.69865 14.6749C6.76296 14.3515 6.92169 14.0546 7.15478 13.8215C7.38787 13.5884 7.68484 13.4297 8.00814 13.3654C8.33144 13.301 8.66655 13.3341 8.9711 13.4602C9.27564 13.5863 9.53594 13.8 9.71908 14.074C9.90221 14.3481 9.99996 14.6704 9.99996 15C9.99996 15.442 9.82436 15.866 9.5118 16.1785C9.19924 16.4911 8.77532 16.6667 8.33329 16.6667Z" fill="#FEC503"/>
<path d="M36.785 23.1313L28.2566 14.6027C27.9746 14.3198 27.644 14.09 27.2806 13.9242C25.17 12.9673 22.9381 13.4077 21.4645 14.8825L12.936 23.41C12.6531 23.692 12.4232 24.0226 12.2575 24.3861C11.3006 26.4967 11.741 28.7286 13.2158 30.2021L21.7441 38.7307C22.0261 39.0136 22.3567 39.2434 22.7202 39.4092C24.8308 40.3661 27.0627 39.9257 28.5362 38.4509L37.0647 29.9225C37.3477 29.6406 37.5775 29.3099 37.7433 28.9465C38.6993 26.8367 38.2589 24.6042 36.785 23.1313ZM25 28.3334C24.6703 28.3334 24.3481 28.2356 24.074 28.0525C23.7999 27.8694 23.5863 27.6091 23.4602 27.3045C23.334 27 23.301 26.6649 23.3653 26.3416C23.4296 26.0183 23.5884 25.7213 23.8214 25.4882C24.0545 25.2551 24.3515 25.0964 24.6748 25.0321C24.9981 24.9678 25.3332 25.0008 25.6378 25.1269C25.9423 25.2531 26.2026 25.4667 26.3857 25.7408C26.5689 26.0148 26.6666 26.3371 26.6666 26.6667C26.6666 27.1087 26.491 27.5327 26.1785 27.8452C25.8659 28.1578 25.442 28.3334 25 28.3334Z" fill="#FEC503"/>
</g>
<defs>
<clipPath id="clip0_1912_3">
<rect width="40" height="40" fill="white"/>
</clipPath>
</defs>
</svg>
